<svg width="833.117188" height="481.000000" viewBox="0 0 833.117 481" fill="none" xmlns="http://www.w3.org/2000/svg" xmlns:xlink="http://www.w3.org/1999/xlink">
	<desc>
			Created with Pixso.
	</desc>
	<defs/>
	<path id="grid" d="M0.86 256.5L388.84 480.5L832.25 224.5L444.27 0.5L0.86 256.5ZM499.69 32.5L56.29 288.5M555.12 64.5L111.71 320.5M610.54 96.5L167.14 352.5M665.97 128.5L222.56 384.5M721.39 160.5L277.99 416.5M776.82 192.5L333.42 448.5M388.84 32.5L776.82 256.5M333.42 64.5L721.39 288.5M277.99 96.5L665.97 320.5M222.56 128.5L610.54 352.5M167.14 160.5L555.12 384.5M111.71 192.5L499.69 416.5M56.29 224.5L444.27 448.5" stroke="#D4D5D7" stroke-opacity="1.000000" stroke-width="1.000000"/>
	<path id="Vector" d="M443.42 156.62L435.91 156.62L435.91 160.95" stroke="#D4D5D7" stroke-opacity="1.000000" stroke-width="2.000000" stroke-linejoin="round" stroke-linecap="round"/>
	<path id="Vector" d="M452.8 162.04L452.8 166.37L445.3 166.37" stroke="#D4D5D7" stroke-opacity="1.000000" stroke-width="2.000000" stroke-linejoin="round" stroke-linecap="round"/>
	<path id="Vector" d="M453.74 158.25L434.98 164.75" stroke="#D4D5D7" stroke-opacity="1.000000" stroke-width="2.000000" stroke-linejoin="round" stroke-linecap="round"/>
	<path id="Vector" d="M495.42 313.62L487.91 313.62L487.91 317.95" stroke="#D4D5D7" stroke-opacity="1.000000" stroke-width="2.000000" stroke-linejoin="round" stroke-linecap="round"/>
	<path id="Vector" d="M504.8 319.04L504.8 323.37L497.3 323.37" stroke="#D4D5D7" stroke-opacity="1.000000" stroke-width="2.000000" stroke-linejoin="round" stroke-linecap="round"/>
	<path id="Vector" d="M505.74 315.25L486.98 321.75" stroke="#D4D5D7" stroke-opacity="1.000000" stroke-width="2.000000" stroke-linejoin="round" stroke-linecap="round"/>
</svg>
