<svg width="149" height="22" viewBox="0 0 149 22" fill="none" xmlns="http://www.w3.org/2000/svg">
<path d="M2.8406 10.31L12.2126 14.006V16.316L2.8406 12.444V10.31ZM2.8406 9.738L12.2126 5.888V8.132L2.8406 11.806V9.738ZM23.8 16.184L24.966 17.262C24.4674 17.9073 23.8367 18.4207 23.074 18.802C22.326 19.1687 21.4754 19.352 20.522 19.352C19.422 19.352 18.4394 19.1027 17.574 18.604C16.7234 18.1053 16.0487 17.4233 15.55 16.558C15.066 15.6927 14.824 14.7027 14.824 13.588C14.824 12.4733 15.066 11.4833 15.55 10.618C16.0487 9.75267 16.7307 9.07067 17.596 8.572C18.4614 8.07333 19.444 7.824 20.544 7.824C21.4974 7.824 22.348 8.01467 23.096 8.396C23.844 8.76267 24.4674 9.26867 24.966 9.914L23.8 10.992C23.448 10.464 23.008 10.046 22.48 9.738C21.952 9.41533 21.3067 9.254 20.544 9.254C19.752 9.254 19.0554 9.43733 18.454 9.804C17.8527 10.1707 17.3834 10.684 17.046 11.344C16.7087 11.9893 16.54 12.7373 16.54 13.588C16.54 14.4387 16.7087 15.194 17.046 15.854C17.3834 16.4993 17.8527 17.0053 18.454 17.372C19.0554 17.7387 19.752 17.922 20.544 17.922C21.3067 17.922 21.952 17.768 22.48 17.46C23.008 17.1373 23.448 16.712 23.8 16.184ZM31.1026 19.352C30.0026 19.352 29.02 19.1027 28.1546 18.604C27.2893 18.1053 26.6073 17.4233 26.1086 16.558C25.6246 15.6927 25.3826 14.7027 25.3826 13.588C25.3826 12.4733 25.6246 11.4833 26.1086 10.618C26.6073 9.75267 27.2893 9.07067 28.1546 8.572C29.02 8.07333 30.0026 7.824 31.1026 7.824C32.2173 7.824 33.2 8.07333 34.0506 8.572C34.916 9.07067 35.5906 9.75267 36.0746 10.618C36.5733 11.4833 36.8226 12.4733 36.8226 13.588C36.8226 14.7027 36.5733 15.6927 36.0746 16.558C35.5906 17.4233 34.916 18.1053 34.0506 18.604C33.2 19.1027 32.2173 19.352 31.1026 19.352ZM31.1026 17.922C31.8946 17.922 32.5913 17.7387 33.1926 17.372C33.794 17.0053 34.2633 16.4993 34.6006 15.854C34.938 15.194 35.1066 14.4387 35.1066 13.588C35.1066 12.7373 34.938 11.9893 34.6006 11.344C34.2633 10.684 33.794 10.1707 33.1926 9.804C32.5913 9.43733 31.8946 9.254 31.1026 9.254C30.3106 9.254 29.614 9.43733 29.0126 9.804C28.4113 10.1707 27.942 10.684 27.6046 11.344C27.2673 11.9893 27.0986 12.7373 27.0986 13.588C27.0986 14.4387 27.2673 15.194 27.6046 15.854C27.942 16.4993 28.4113 17.0053 29.0126 17.372C29.614 17.7387 30.3106 17.922 31.1026 17.922ZM49.2483 19H47.6423V16.052L47.6203 16.03V13.918C47.6203 12.994 47.4516 12.1873 47.1143 11.498C46.777 10.794 46.3003 10.244 45.6843 9.848C45.083 9.452 44.3863 9.254 43.5943 9.254C42.817 9.254 42.1276 9.44467 41.5263 9.826C40.925 10.1927 40.4556 10.706 40.1183 11.366C39.781 12.0113 39.6123 12.752 39.6123 13.588C39.6123 14.424 39.781 15.172 40.1183 15.832C40.4703 16.4773 40.947 16.9907 41.5483 17.372C42.1643 17.7387 42.8683 17.922 43.6603 17.922C44.4083 17.922 45.083 17.768 45.6843 17.46C46.3003 17.152 46.799 16.7267 47.1803 16.184C47.5616 15.6267 47.7816 15.0033 47.8403 14.314L48.1483 14.754C48.2656 15.6193 48.1336 16.404 47.7523 17.108C47.371 17.7973 46.8063 18.3473 46.0583 18.758C45.325 19.154 44.467 19.352 43.4843 19.352C42.399 19.352 41.431 19.1027 40.5803 18.604C39.7443 18.1053 39.0843 17.4233 38.6003 16.558C38.131 15.6927 37.8963 14.7027 37.8963 13.588C37.8963 12.488 38.131 11.5053 38.6003 10.64C39.0843 9.77467 39.737 9.09267 40.5583 8.594C41.3943 8.08067 42.3403 7.824 43.3963 7.824C44.1883 7.824 44.907 7.978 45.5523 8.286C46.2123 8.57933 46.7623 8.99733 47.2023 9.54C47.6423 10.0827 47.921 10.7207 48.0383 11.454H47.6203V3.16H49.2483V19ZM60.4762 15.92L61.6202 16.998C61.0482 17.7313 60.3588 18.3107 59.5522 18.736C58.7455 19.1467 57.8215 19.352 56.7802 19.352C55.6362 19.352 54.6095 19.1027 53.7002 18.604C52.8055 18.1053 52.1015 17.4233 51.5882 16.558C51.0748 15.6927 50.8182 14.7027 50.8182 13.588C50.8182 12.4733 51.0602 11.4833 51.5442 10.618C52.0428 9.75267 52.7248 9.07067 53.5902 8.572C54.4555 8.07333 55.4382 7.824 56.5382 7.824C57.5942 7.824 58.5255 8.07333 59.3322 8.572C60.1535 9.056 60.7988 9.72333 61.2682 10.574C61.7375 11.4247 61.9722 12.4073 61.9722 13.522V13.654H60.3002V13.522C60.3002 12.6713 60.1315 11.9307 59.7942 11.3C59.4715 10.6547 59.0242 10.156 58.4522 9.804C57.8948 9.43733 57.2568 9.254 56.5382 9.254C55.7462 9.254 55.0495 9.43733 54.4482 9.804C53.8468 10.1707 53.3775 10.6767 53.0402 11.322C52.7028 11.9673 52.5342 12.7153 52.5342 13.566C52.5342 14.4167 52.7175 15.172 53.0842 15.832C53.4508 16.492 53.9495 17.0053 54.5802 17.372C55.2255 17.7387 55.9662 17.922 56.8022 17.922C58.3275 17.922 59.5522 17.2547 60.4762 15.92ZM61.9722 14.16H52.1822V12.818H61.6202L61.9722 13.522V14.16ZM69.8731 7.824V10.112H69.3451C68.6704 10.112 68.0691 10.2587 67.5411 10.552C67.0131 10.8453 66.5951 11.3 66.2871 11.916C65.9791 12.532 65.8251 13.3387 65.8251 14.336V19H63.3611V8.022H65.8031V11.564H65.4731C65.6197 10.6107 65.9057 9.86267 66.3311 9.32C66.7564 8.77733 67.2551 8.396 67.8271 8.176C68.3991 7.94133 68.9711 7.824 69.5431 7.824H69.8731ZM79.8337 15.678L81.2417 17.218C80.6697 17.878 79.9584 18.3987 79.1077 18.78C78.257 19.1613 77.311 19.352 76.2697 19.352C75.0377 19.352 73.945 19.1027 72.9917 18.604C72.053 18.1053 71.3124 17.416 70.7697 16.536C70.2417 15.656 69.9777 14.6513 69.9777 13.522C69.9777 12.378 70.2344 11.366 70.7477 10.486C71.261 9.606 71.965 8.91667 72.8597 8.418C73.7544 7.91933 74.759 7.67 75.8737 7.67C76.959 7.67 77.9197 7.91933 78.7557 8.418C79.5917 8.902 80.2517 9.57667 80.7357 10.442C81.2197 11.2927 81.4617 12.2827 81.4617 13.412V13.544H79.0197V13.302C79.0197 12.5687 78.8804 11.9307 78.6017 11.388C78.3377 10.8307 77.971 10.4053 77.5017 10.112C77.0324 9.804 76.4824 9.65 75.8517 9.65C75.1917 9.65 74.605 9.81133 74.0917 10.134C73.593 10.442 73.2044 10.882 72.9257 11.454C72.647 12.0113 72.5077 12.686 72.5077 13.478C72.5077 14.27 72.669 14.9593 72.9917 15.546C73.329 16.1327 73.7837 16.5873 74.3557 16.91C74.9424 17.218 75.617 17.372 76.3797 17.372C77.773 17.372 78.9244 16.8073 79.8337 15.678ZM81.4617 14.292H71.6937V12.62H81.1097L81.4617 13.434V14.292ZM88.3174 19H85.9194L81.2114 8.022H83.7854L87.4814 17.394H86.7994L90.5174 8.022H93.0034L88.3174 19ZM96.2333 19H93.7693V8.022H96.2333V19ZM95.0013 5.756C94.5759 5.756 94.2093 5.60933 93.9013 5.316C93.5933 5.02267 93.4393 4.67067 93.4393 4.26C93.4393 3.82 93.5933 3.45333 93.9013 3.16C94.2093 2.86667 94.5759 2.72 95.0013 2.72C95.4413 2.72 95.8079 2.86667 96.1013 3.16C96.4093 3.45333 96.5633 3.81267 96.5633 4.238C96.5633 4.66333 96.4093 5.02267 96.1013 5.316C95.8079 5.60933 95.4413 5.756 95.0013 5.756ZM107.406 15.678L108.814 17.218C108.242 17.878 107.531 18.3987 106.68 18.78C105.829 19.1613 104.883 19.352 103.842 19.352C102.61 19.352 101.517 19.1027 100.564 18.604C99.6253 18.1053 98.8846 17.416 98.342 16.536C97.814 15.656 97.55 14.6513 97.55 13.522C97.55 12.378 97.8066 11.366 98.32 10.486C98.8333 9.606 99.5373 8.91667 100.432 8.418C101.327 7.91933 102.331 7.67 103.446 7.67C104.531 7.67 105.492 7.91933 106.328 8.418C107.164 8.902 107.824 9.57667 108.308 10.442C108.792 11.2927 109.034 12.2827 109.034 13.412V13.544H106.592V13.302C106.592 12.5687 106.453 11.9307 106.174 11.388C105.91 10.8307 105.543 10.4053 105.074 10.112C104.605 9.804 104.055 9.65 103.424 9.65C102.764 9.65 102.177 9.81133 101.664 10.134C101.165 10.442 100.777 10.882 100.498 11.454C100.219 12.0113 100.08 12.686 100.08 13.478C100.08 14.27 100.241 14.9593 100.564 15.546C100.901 16.1327 101.356 16.5873 101.928 16.91C102.515 17.218 103.189 17.372 103.952 17.372C105.345 17.372 106.497 16.8073 107.406 15.678ZM109.034 14.292H99.266V12.62H108.682L109.034 13.434V14.292ZM122.721 19H120.169L117.375 10.2H118.013L115.219 19H112.667L109.213 8.022H111.677L114.383 17.592H113.679L116.649 8.022H118.827L121.797 17.592H121.093L123.777 8.022H126.175L122.721 19ZM127.707 19H125.375L131.755 2.918H134.087L127.707 19ZM136.784 8.198V5.888L146.156 9.76V11.872L136.784 8.198ZM136.784 16.316V14.072L146.156 10.398V12.444L136.784 16.316Z" fill="url(#paint0_linear_5012_3388)"/>
<defs>
<linearGradient id="paint0_linear_5012_3388" x1="-4.30505e-07" y1="19.6429" x2="110.386" y2="-43.4612" gradientUnits="userSpaceOnUse">
<stop stop-color="#2093FE"/>
<stop offset="1" stop-color="#C217FE" stop-opacity="0.9"/>
</linearGradient>
</defs>
</svg>
