<svg width="207.816406" height="22.679688" viewBox="0 0 207.816 22.6797" fill="none" xmlns="http://www.w3.org/2000/svg" xmlns:xlink="http://www.w3.org/1999/xlink">
	<desc>
			Created with Pixso.
	</desc>
	<defs/>
	<path id="&lt;codereview /&gt;" d="M128.46 3.53C128.88 3.93 129.38 4.13 129.96 4.13Q130.5 4.13 130.93 3.92Q131.22 3.77 131.46 3.53C131.88 3.13 132.09 2.64 132.09 2.06C132.09 1.48 131.88 0.99 131.46 0.59C131.06 0.19 130.56 -0.01 129.96 -0.01Q129.52 -0.01 129.14 0.14Q128.77 0.29 128.46 0.59C128.03 0.99 127.83 1.49 127.83 2.09C127.83 2.65 128.03 3.13 128.46 3.53ZM179.11 22.19L182.29 22.19L190.99 0.26L187.81 0.26L179.11 22.19ZM62.46 22.19L65.79 22.19L65.79 0.59L62.43 0.59L62.43 9.53C62.35 9.41 62.27 9.29 62.19 9.17Q61.93 8.81 61.61 8.49Q60.95 7.83 60.06 7.4C59.2 6.96 58.21 6.74 57.09 6.74C55.69 6.74 54.42 7.08 53.28 7.76C52.14 8.44 51.23 9.38 50.55 10.58C49.89 11.78 49.56 13.15 49.56 14.69C49.56 16.25 49.89 17.63 50.55 18.83C51.23 20.03 52.14 20.97 53.28 21.65C54.44 22.33 55.73 22.67 57.15 22.67C58.47 22.67 59.61 22.4 60.57 21.86C61.35 21.41 61.98 20.83 62.46 20.12L62.46 22.19ZM62.43 16.87L62.43 14.93C62.43 13.85 62.23 12.91 61.83 12.11C61.43 11.31 60.87 10.69 60.15 10.25C59.45 9.79 58.64 9.56 57.72 9.56Q56.63 9.56 55.73 9.97Q55.49 10.08 55.26 10.22Q54.9 10.45 54.6 10.73Q54.02 11.28 53.64 12.05C53.26 12.83 53.07 13.71 53.07 14.69C53.07 15.69 53.27 16.58 53.67 17.36C54.07 18.14 54.63 18.75 55.35 19.19C56.07 19.63 56.91 19.85 57.87 19.85C58.71 19.85 59.47 19.68 60.15 19.34C60.85 19 61.42 18.53 61.86 17.93C62.1 17.61 62.29 17.25 62.43 16.87ZM12.78 4.31L0 9.56L0 13.25L12.78 18.53L12.78 15.38L2.59 11.37L12.78 7.37L12.78 4.31ZM195.03 4.31L195.03 7.46L205.25 11.47L195.03 15.47L195.03 18.53L207.81 13.25L207.81 9.59L195.03 4.31ZM31.04 19.7L28.88 17.6C28.44 18.26 27.88 18.8 27.2 19.22C26.54 19.64 25.74 19.85 24.8 19.85C23.88 19.85 23.06 19.63 22.34 19.19C21.62 18.75 21.06 18.14 20.66 17.36C20.26 16.58 20.06 15.69 20.06 14.69C20.06 13.69 20.26 12.81 20.66 12.05C21.06 11.27 21.62 10.66 22.34 10.22C23.06 9.78 23.88 9.56 24.8 9.56Q26.21 9.56 27.2 10.19C27.88 10.59 28.44 11.13 28.88 11.81L31.04 9.71C30.3 8.77 29.39 8.04 28.31 7.52C27.25 7 26.04 6.74 24.68 6.74Q22.71 6.74 21.08 7.49Q20.77 7.63 20.48 7.79Q19.53 8.32 18.79 9.06Q18.1 9.75 17.6 10.61C16.9 11.79 16.55 13.15 16.55 14.69C16.55 16.25 16.9 17.63 17.6 18.83C18.3 20.01 19.25 20.95 20.45 21.65C21.67 22.33 23.05 22.67 24.59 22.67Q26.69 22.67 28.31 21.89C29.39 21.35 30.3 20.62 31.04 19.7ZM35.92 21.79Q37.68 22.67 39.88 22.67Q42.28 22.67 44.11 21.65Q45.2 21.06 46 20.2Q46.57 19.58 46.99 18.83C47.69 17.63 48.04 16.25 48.04 14.69C48.04 13.15 47.69 11.78 46.99 10.58Q46.57 9.84 46 9.22Q45.2 8.36 44.11 7.76C42.89 7.08 41.48 6.74 39.88 6.74C38.3 6.74 36.89 7.08 35.65 7.76Q34.7 8.29 33.96 9.03Q33.28 9.72 32.77 10.58C32.07 11.78 31.72 13.15 31.72 14.69C31.72 16.25 32.07 17.63 32.77 18.83Q33.28 19.7 33.96 20.39Q34.7 21.13 35.65 21.65Q35.78 21.73 35.92 21.79ZM83.26 19.76L81.34 17.66Q80.31 18.94 78.97 19.51Q77.9 19.97 76.63 19.97Q75.07 19.97 73.87 19.34C73.09 18.9 72.47 18.28 72.01 17.48Q71.58 16.72 71.43 15.77L83.56 15.77L83.56 14.57C83.56 13.03 83.23 11.68 82.57 10.52C81.91 9.34 81.01 8.42 79.87 7.76C78.73 7.08 77.42 6.74 75.94 6.74C74.42 6.74 73.05 7.08 71.83 7.76C70.61 8.44 69.65 9.38 68.95 10.58Q68.85 10.75 68.76 10.93Q67.9 12.6 67.9 14.72C67.9 16.26 68.26 17.63 68.98 18.83C69.72 20.03 70.73 20.97 72.01 21.65C73.31 22.33 74.8 22.67 76.48 22.67Q78.61 22.67 80.35 21.89C81.51 21.37 82.48 20.66 83.26 19.76ZM80.17 13.49C80.08 12.88 79.91 12.32 79.66 11.81Q79.21 10.87 78.47 10.29Q78.32 10.18 78.16 10.07Q78 9.98 77.84 9.89Q76.99 9.44 75.91 9.44C75.01 9.44 74.21 9.66 73.51 10.1C72.83 10.52 72.3 11.12 71.92 11.9C71.68 12.37 71.52 12.9 71.43 13.49L80.17 13.49ZM110.47 19.76L108.55 17.66C107.31 19.2 105.74 19.97 103.84 19.97Q102.28 19.97 101.08 19.34C100.3 18.9 99.67 18.28 99.21 17.48Q98.79 16.72 98.64 15.77L110.77 15.77L110.77 14.57Q110.77 12.26 109.78 10.52C109.12 9.34 108.22 8.42 107.08 7.76Q106.85 7.63 106.62 7.52Q105.08 6.74 103.15 6.74C101.63 6.74 100.26 7.08 99.03 7.76C97.81 8.44 96.85 9.38 96.15 10.58Q96.06 10.75 95.97 10.93Q95.1 12.6 95.1 14.72C95.1 16.26 95.46 17.63 96.18 18.83C96.92 20.03 97.93 20.97 99.21 21.65C100.52 22.33 102.01 22.67 103.69 22.67C105.11 22.67 106.4 22.41 107.56 21.89C108.72 21.37 109.69 20.66 110.47 19.76ZM107.38 13.49C107.29 12.88 107.12 12.32 106.87 11.81Q106.42 10.87 105.68 10.29Q105.53 10.18 105.37 10.07Q105.21 9.98 105.05 9.89Q104.2 9.44 103.12 9.44C102.22 9.44 101.42 9.66 100.72 10.1C100.04 10.52 99.5 11.12 99.12 11.9C98.89 12.37 98.73 12.9 98.64 13.49L107.38 13.49ZM149.15 19.76L147.23 17.66C145.99 19.2 144.42 19.97 142.52 19.97C141.48 19.97 140.56 19.76 139.76 19.34C138.98 18.9 138.36 18.28 137.9 17.48C137.62 16.97 137.43 16.4 137.33 15.77L149.45 15.77L149.45 14.57Q149.45 12.26 148.46 10.52C147.8 9.34 146.9 8.42 145.76 7.76Q145.54 7.63 145.31 7.52Q143.77 6.74 141.83 6.74C140.31 6.74 138.94 7.08 137.72 7.76C136.5 8.44 135.54 9.38 134.84 10.58C134.14 11.78 133.79 13.16 133.79 14.72Q133.79 16.63 134.53 18.19Q134.69 18.52 134.87 18.83C135.61 20.03 136.62 20.97 137.9 21.65C139.2 22.33 140.69 22.67 142.37 22.67C143.79 22.67 145.08 22.41 146.24 21.89C147.4 21.37 148.37 20.66 149.15 19.76ZM146.06 13.49C145.98 12.88 145.81 12.32 145.55 11.81Q145.11 10.87 144.37 10.29Q144.22 10.18 144.05 10.07Q143.9 9.98 143.74 9.89Q142.89 9.44 141.8 9.44C140.9 9.44 140.1 9.66 139.4 10.1Q139.16 10.26 138.94 10.44Q138.25 11.02 137.81 11.9C137.58 12.37 137.42 12.9 137.33 13.49L146.06 13.49ZM94.6 10.07L94.6 6.95L94.15 6.95C93.37 6.95 92.59 7.11 91.81 7.43C91.03 7.73 90.35 8.25 89.77 8.99C89.48 9.36 89.24 9.79 89.05 10.3L89.05 7.22L85.72 7.22L85.72 22.19L89.08 22.19L89.08 15.83Q89.08 13.79 89.71 12.53Q90.25 11.45 91.12 10.86Q91.27 10.76 91.42 10.67C92.14 10.27 92.96 10.07 93.88 10.07L94.6 10.07ZM117.21 22.19L120.48 22.19L126.87 7.22L123.48 7.22L118.87 18.83L114.3 7.22L110.79 7.22L117.21 22.19ZM128.28 22.19L131.64 22.19L131.64 7.22L128.28 7.22L128.28 22.19ZM165 22.19L168.48 22.19L173.19 7.22L169.92 7.22L166.72 18.65L163.17 7.22L160.2 7.22L156.66 18.66L153.42 7.22L150.06 7.22L154.77 22.19L158.25 22.19L161.63 11.56L165 22.19ZM42.34 19.19C41.64 19.63 40.82 19.85 39.88 19.85C38.96 19.85 38.15 19.63 37.45 19.19C36.75 18.75 36.2 18.15 35.8 17.39C35.42 16.61 35.23 15.71 35.23 14.69C35.23 13.69 35.42 12.81 35.8 12.05C36.2 11.27 36.75 10.66 37.45 10.22C38.15 9.78 38.96 9.56 39.88 9.56C40.82 9.56 41.64 9.78 42.34 10.22C43.04 10.66 43.58 11.27 43.96 12.05C44.36 12.81 44.56 13.69 44.56 14.69C44.56 15.71 44.36 16.61 43.96 17.39C43.58 18.15 43.04 18.75 42.34 19.19Z" fill="#86888E" fill-opacity="1.000000" fill-rule="evenodd"/>
</svg>
