<svg width="20.000000" height="20.000000" viewBox="0 0 20 20" fill="none" xmlns="http://www.w3.org/2000/svg" xmlns:xlink="http://www.w3.org/1999/xlink">
	<desc>
			Created with Pixso.
	</desc>
	<defs>
		<clipPath id="clip137_13433">
			<rect id="code-asterisk 1" rx="0.000000" width="19.000000" height="19.000000" transform="translate(0.500000 0.500000)" fill="white" fill-opacity="0"/>
		</clipPath>
	</defs>
	<rect id="code-asterisk 1" rx="0.000000" width="19.000000" height="19.000000" transform="translate(0.500000 0.500000)" fill="#FFFFFF" fill-opacity="0"/>
	<g clip-path="url(#clip137_13433)">
		<path id="Vector" d="M5 15.83C4.55 15.83 4.13 15.65 3.82 15.34C3.5 15.03 3.33 14.6 3.33 14.16L3.33 10.83L2.5 10L3.33 9.16L3.33 5.83C3.33 5.39 3.5 4.96 3.82 4.65C4.13 4.34 4.55 4.16 5 4.16" stroke="#333333" stroke-opacity="1.000000" stroke-width="1.500000" stroke-linejoin="round" stroke-linecap="round"/>
		<path id="Vector" d="M10 9.89L12.5 8.48" stroke="#333333" stroke-opacity="1.000000" stroke-width="1.500000" stroke-linejoin="round" stroke-linecap="round"/>
		<path id="Vector" d="M10 9.89L10 12.7" stroke="#333333" stroke-opacity="1.000000" stroke-width="1.500000" stroke-linejoin="round" stroke-linecap="round"/>
		<path id="Vector" d="M10 9.89L7.5 8.48" stroke="#333333" stroke-opacity="1.000000" stroke-width="1.500000" stroke-linejoin="round" stroke-linecap="round"/>
		<path id="Vector" d="M10 9.89L12.5 11.3" stroke="#333333" stroke-opacity="1.000000" stroke-width="1.500000" stroke-linejoin="round" stroke-linecap="round"/>
		<path id="Vector" d="M10 7.08L10 9.89" stroke="#333333" stroke-opacity="1.000000" stroke-width="1.500000" stroke-linejoin="round" stroke-linecap="round"/>
		<path id="Vector" d="M10 9.89L7.5 11.3" stroke="#333333" stroke-opacity="1.000000" stroke-width="1.500000" stroke-linejoin="round" stroke-linecap="round"/>
		<path id="Vector" d="M15 15.83C15.44 15.83 15.86 15.65 16.17 15.34C16.49 15.03 16.66 14.6 16.66 14.16L16.66 10.83L17.5 10L16.66 9.16L16.66 5.83C16.66 5.39 16.49 4.96 16.17 4.65C15.86 4.34 15.44 4.16 15 4.16" stroke="#333333" stroke-opacity="1.000000" stroke-width="1.500000" stroke-linejoin="round" stroke-linecap="round"/>
	</g>
</svg>
