<svg width="13.909180" height="14.727051" viewBox="0 0 13.9092 14.7271" fill="none" xmlns="http://www.w3.org/2000/svg" xmlns:xlink="http://www.w3.org/1999/xlink">
	<desc>
			Created with Pixso.
	</desc>
	<defs/>
	<path id="Vector" d="M1.1 5.68C1.14 5.63 1.18 5.6 1.24 5.58C1.29 5.56 1.34 5.55 1.4 5.55C1.45 5.56 1.5 5.58 1.55 5.61C1.6 5.64 1.64 5.68 1.66 5.73C1.85 6.06 2.11 6.33 2.39 6.54C3.02 7.01 3.77 7.25 4.54 7.25L6.66 7.25C6.84 7.25 6.93 7.14 6.95 6.98C6.97 6.88 6.96 6.78 6.92 6.68C6.89 6.58 6.83 6.5 6.75 6.44C6.19 5.95 5.78 5.29 5.6 4.54C5.41 3.8 5.46 3.01 5.73 2.29C5.99 1.57 6.47 0.96 7.08 0.55C7.7 0.14 8.42 -0.05 9.15 0C10.68 0.12 11.94 1.31 12.25 2.86C12.26 2.89 12.28 2.93 12.3 2.95C12.33 2.98 12.36 2.99 12.39 3C12.84 3.1 13.29 3.16 13.74 3.19C13.77 3.19 13.8 3.2 13.82 3.22C13.85 3.24 13.87 3.26 13.88 3.29C13.9 3.31 13.9 3.34 13.9 3.37C13.91 3.41 13.9 3.44 13.89 3.46C13.51 4.26 12.86 4.83 12.27 5.2C12.03 5.35 11.82 5.55 11.65 5.79L11.64 5.81C11.53 5.96 11.48 6.15 11.5 6.34C11.52 6.53 11.61 6.71 11.74 6.83C13.13 8.14 13.41 9.33 13.41 10.36C13.4 11.72 12.69 12.88 11.58 13.57C8.91 15.24 5.29 14.8 3.58 14.1C2.28 13.56 1.03 12.63 0.49 11.27C-0.63 8.46 0.4 6.51 1.1 5.68ZM10.57 3.62C10.69 3.62 10.8 3.58 10.9 3.52C10.99 3.45 11.07 3.35 11.11 3.24C11.16 3.12 11.17 3 11.15 2.88C11.12 2.76 11.07 2.65 10.99 2.56C10.9 2.47 10.8 2.41 10.69 2.39C10.57 2.37 10.45 2.38 10.35 2.43C10.24 2.47 10.15 2.55 10.08 2.65C10.02 2.76 9.98 2.88 9.98 3C9.98 3.16 10.05 3.32 10.16 3.44C10.27 3.56 10.41 3.62 10.57 3.62Z" fill="#232325" fill-opacity="1.000000" fill-rule="nonzero"/>
</svg>
