<svg width="20.000000" height="20.000000" viewBox="0 0 20 20" fill="none" xmlns="http://www.w3.org/2000/svg" xmlns:xlink="http://www.w3.org/1999/xlink">
	<desc>
			Created with Pixso.
	</desc>
	<defs>
		<clipPath id="clip117_1920">
			<rect id="Frame" rx="0.000000" width="19.000000" height="19.000000" transform="translate(0.500000 0.500000)" fill="white" fill-opacity="0"/>
		</clipPath>
	</defs>
	<rect id="Frame" rx="0.000000" width="19.000000" height="19.000000" transform="translate(0.500000 0.500000)" fill="#FFFFFF" fill-opacity="0"/>
	<g clip-path="url(#clip117_1920)">
		<path id="Vector" d="M7.64 8.19C8.26 8.81 9.11 9.16 10 9.16C10.88 9.16 11.73 8.81 12.35 8.19C12.98 7.56 13.33 6.71 13.33 5.83C13.33 4.94 12.98 4.1 12.35 3.47C11.73 2.85 10.88 2.5 10 2.5C9.11 2.5 8.26 2.85 7.64 3.47C7.01 4.1 6.66 4.94 6.66 5.83C6.66 6.71 7.01 7.56 7.64 8.19Z" stroke="#333333" stroke-opacity="1.000000" stroke-width="1.500000" stroke-linejoin="round"/>
		<path id="Vector" d="M5 17.5L5 15.83C5 14.94 5.35 14.1 5.97 13.47C6.6 12.85 7.44 12.5 8.33 12.5L11.66 12.5C12.55 12.5 13.39 12.85 14.02 13.47C14.64 14.1 15 14.94 15 15.83L15 17.5" stroke="#333333" stroke-opacity="1.000000" stroke-width="1.500000" stroke-linejoin="round" stroke-linecap="round"/>
	</g>
</svg>
