<svg width="18.000000" height="18.000000" viewBox="0 0 18 18" fill="none" xmlns="http://www.w3.org/2000/svg" xmlns:xlink="http://www.w3.org/1999/xlink">
	<desc>
			Created with Pixso.
	</desc>
	<defs>
		<clipPath id="clip2113_6376">
			<rect id="Frame" rx="0.000000" width="17.000000" height="17.000000" transform="translate(0.500000 0.500000)" fill="white" fill-opacity="0"/>
		</clipPath>
	</defs>
	<rect id="Frame" rx="0.000000" width="17.000000" height="17.000000" transform="translate(0.500000 0.500000)" fill="#FFFFFF" fill-opacity="0"/>
	<g clip-path="url(#clip2113_6376)">
		<mask id="mask2113_6378" mask-type="alpha" maskUnits="userSpaceOnUse" x="0.000000" y="0.000000" width="18.000000" height="18.000000">
			<path id="Vector" d="M0 0L18 0L18 18L0 18L0 0Z" fill="#000000" fill-opacity="1.000000" fill-rule="nonzero"/>
		</mask>
		<g mask="url(#mask2113_6378)">
			<path id="Vector" d="M9 18C13.96 18 18 13.97 18 9C18 4.02 13.96 0 9 0C4.03 0 0 4.02 0 9C0 13.97 4.03 18 9 18Z" fill="#FF0002" fill-opacity="1.000000" fill-rule="nonzero"/>
			<path id="Vector" d="M13.37 7.67C13.1 7.39 12.71 7.23 12.24 7.23C11.66 7.23 11.2 7.47 10.94 7.92L10.94 5.7L9.58 5.7L9.58 11.78L10.94 11.78L10.94 9.64C10.94 9.14 11.05 8.82 11.2 8.64C11.35 8.45 11.56 8.38 11.78 8.38C11.98 8.38 12.14 8.44 12.25 8.56C12.36 8.68 12.42 8.86 12.42 9.11L12.42 11.77L13.78 11.77L13.78 8.85C13.78 8.35 13.64 7.94 13.37 7.67L13.37 7.67ZM7.28 7.23C6.69 7.23 6.25 7.47 5.99 7.92L5.99 5.7L4.62 5.7L4.62 11.78L5.99 11.78L5.99 9.64C5.99 9.14 6.09 8.82 6.24 8.64C6.39 8.45 6.6 8.38 6.82 8.38C7.02 8.38 7.18 8.44 7.29 8.56C7.4 8.68 7.47 8.86 7.47 9.11L7.47 11.77L8.83 11.77L8.83 8.85C8.83 8.35 8.68 7.94 8.41 7.66C8.14 7.38 7.76 7.23 7.28 7.23Z" fill="#FFFFFF" fill-opacity="1.000000" fill-rule="nonzero"/>
		</g>
	</g>
</svg>
