<svg width="18.000000" height="18.000000" viewBox="0 0 18 18" fill="none" xmlns="http://www.w3.org/2000/svg" xmlns:xlink="http://www.w3.org/1999/xlink">
	<desc>
			Created with Pixso.
	</desc>
	<defs>
		<clipPath id="clip34_1203">
			<rect id="world 1" rx="0.000000" width="17.000000" height="17.000000" transform="translate(0.500000 0.500000)" fill="white" fill-opacity="0"/>
		</clipPath>
	</defs>
	<rect id="world 1" rx="0.000000" width="17.000000" height="17.000000" transform="translate(0.500000 0.500000)" fill="#FFFFFF" fill-opacity="0"/>
	<g clip-path="url(#clip34_1203)">
		<path id="Vector" d="M2.76 11.58C3.1 12.4 3.6 13.14 4.22 13.77C4.85 14.39 5.59 14.89 6.41 15.23C7.23 15.57 8.11 15.75 9 15.75C9.88 15.75 10.76 15.57 11.58 15.23C12.4 14.89 13.14 14.39 13.77 13.77C14.39 13.14 14.89 12.4 15.23 11.58C15.57 10.76 15.75 9.88 15.75 9C15.75 7.2 15.03 5.49 13.77 4.22C12.5 2.96 10.79 2.25 9 2.25C7.2 2.25 5.49 2.96 4.22 4.22C2.96 5.49 2.25 7.2 2.25 9C2.25 9.88 2.42 10.76 2.76 11.58Z" stroke="#232325" stroke-opacity="1.000000" stroke-width="1.200000" stroke-linejoin="round"/>
		<path id="Vector" d="M2.7 6.75L15.29 6.75" stroke="#232325" stroke-opacity="1.000000" stroke-width="1.200000" stroke-linejoin="round" stroke-linecap="round"/>
		<path id="Vector" d="M2.7 11.25L15.29 11.25" stroke="#232325" stroke-opacity="1.000000" stroke-width="1.200000" stroke-linejoin="round" stroke-linecap="round"/>
		<path id="Vector" d="M8.62 2.25C7.36 4.27 6.69 6.61 6.69 9C6.69 11.38 7.36 13.72 8.62 15.75" stroke="#232325" stroke-opacity="1.000000" stroke-width="1.200000" stroke-linejoin="round" stroke-linecap="round"/>
		<path id="Vector" d="M9.37 2.25C10.63 4.27 11.3 6.61 11.3 9C11.3 11.38 10.63 13.72 9.37 15.75" stroke="#232325" stroke-opacity="1.000000" stroke-width="1.200000" stroke-linejoin="round" stroke-linecap="round"/>
	</g>
</svg>
