<svg width="11.466797" height="11.370605" viewBox="0 0 11.4668 11.3706" fill="none" xmlns="http://www.w3.org/2000/svg" xmlns:xlink="http://www.w3.org/1999/xlink">
	<desc>
			Created with Pixso.
	</desc>
	<defs/>
	<path id="icon" d="M10.41 11.36C10.16 11.36 9.92 11.26 9.74 11.08C9.57 10.91 9.47 10.67 9.47 10.41L9.54 3.22L1.61 11.09C1.43 11.27 1.19 11.37 0.94 11.37C0.68 11.37 0.44 11.27 0.27 11.09C0.09 10.91 -0.01 10.67 0 10.41C0 10.16 0.1 9.92 0.28 9.74L8.22 1.89L1.03 1.89C0.78 1.89 0.54 1.79 0.36 1.61C0.19 1.43 0.09 1.19 0.09 0.94C0.1 0.69 0.2 0.45 0.38 0.27C0.56 0.09 0.8 0 1.05 0L10.52 0C10.65 0 10.77 0.02 10.88 0.07C11.11 0.17 11.3 0.35 11.39 0.58C11.44 0.7 11.46 0.82 11.46 0.94L11.37 10.41C11.36 10.67 11.26 10.91 11.08 11.08C10.9 11.26 10.66 11.36 10.41 11.36Z" fill="#976E0B" fill-opacity="1.000000" fill-rule="nonzero"/>
</svg>
