<svg width="18.000000" height="18.000000" viewBox="0 0 18 18" fill="none" xmlns="http://www.w3.org/2000/svg" xmlns:xlink="http://www.w3.org/1999/xlink">
	<desc>
			Created with Pixso.
	</desc>
	<defs>
		<clipPath id="clip34_1208">
			<rect id="icon/briefcase" rx="0.000000" width="17.000000" height="17.000000" transform="translate(0.500000 0.500000)" fill="white" fill-opacity="0"/>
		</clipPath>
	</defs>
	<rect id="icon/briefcase" rx="0.000000" width="17.000000" height="17.000000" transform="translate(0.500000 0.500000)" fill="#FFFFFF" fill-opacity="0"/>
	<g clip-path="url(#clip34_1208)">
		<path id="Vector" d="M2.68 5.68C2.97 5.4 3.35 5.25 3.75 5.25L14.25 5.25C14.64 5.25 15.02 5.4 15.31 5.68C15.59 5.97 15.75 6.35 15.75 6.75L15.75 13.5C15.75 13.89 15.59 14.27 15.31 14.56C15.02 14.84 14.64 15 14.25 15L3.75 15C3.35 15 2.97 14.84 2.68 14.56C2.4 14.27 2.25 13.89 2.25 13.5L2.25 6.75C2.25 6.35 2.4 5.97 2.68 5.68Z" stroke="#232325" stroke-opacity="1.000000" stroke-width="1.500000" stroke-linejoin="round"/>
		<path id="Vector" d="M6 5.25L6 3.75C6 3.35 6.15 2.97 6.43 2.68C6.72 2.4 7.1 2.25 7.5 2.25L10.5 2.25C10.89 2.25 11.27 2.4 11.56 2.68C11.84 2.97 12 3.35 12 3.75L12 5.25" stroke="#232325" stroke-opacity="1.000000" stroke-width="1.500000" stroke-linejoin="round" stroke-linecap="round"/>
	</g>
</svg>
