<svg width="30.000000" height="30.000000" viewBox="0 0 30 30" fill="none" xmlns="http://www.w3.org/2000/svg" xmlns:xlink="http://www.w3.org/1999/xlink">
	<desc>
			Created with Pixso.
	</desc>
	<defs>
		<clipPath id="clip1280_1183">
			<rect id="icon/linkedin" rx="0.000000" width="29.000000" height="29.000000" transform="translate(0.500000 0.500000)" fill="white" fill-opacity="0"/>
		</clipPath>
	</defs>
	<rect id="icon/linkedin" rx="0.000000" width="29.000000" height="29.000000" transform="translate(0.500000 0.500000)" fill="#FFFFFF" fill-opacity="0"/>
	<g clip-path="url(#clip1280_1183)">
		<path id="10.Linkedin" d="M15 0C12.03 0 9.13 0.87 6.66 2.52C4.2 4.17 2.27 6.51 1.14 9.25C0 12 -0.3 15.01 0.28 17.92C0.86 20.83 2.29 23.5 4.39 25.6C6.49 27.7 9.16 29.13 12.07 29.71C14.98 30.29 17.99 29.99 20.74 28.85C23.48 27.72 25.82 25.8 27.47 23.33C29.12 20.86 30 17.96 30 15C30 11.02 28.41 7.2 25.6 4.39C22.79 1.58 18.97 0 15 0ZM10.63 22.89L7.36 22.89L7.36 12.35L10.63 12.35L10.63 22.89ZM9 10.91C8.62 10.91 8.25 10.8 7.94 10.59C7.62 10.39 7.38 10.09 7.23 9.74C7.08 9.39 7.05 9.01 7.12 8.64C7.19 8.27 7.37 7.93 7.63 7.66C7.9 7.4 8.24 7.21 8.61 7.14C8.98 7.06 9.36 7.1 9.71 7.24C10.06 7.38 10.35 7.63 10.57 7.94C10.78 8.25 10.89 8.62 10.89 9C10.89 9.5 10.69 9.98 10.34 10.34C9.98 10.7 9.5 10.91 9 10.91ZM22.89 22.89L19.62 22.89L19.62 17.76C19.62 16.53 19.6 14.97 17.92 14.97C16.24 14.97 15.94 16.3 15.94 17.67L15.94 22.89L12.69 22.89L12.69 12.35L15.83 12.35L15.83 13.79L15.87 13.79C16.31 12.96 17.37 12.08 18.97 12.08C22.28 12.08 22.89 14.26 22.89 17.1L22.89 22.89Z" fill="#FFFFFF" fill-opacity="1.000000" fill-rule="nonzero"/>
	</g>
</svg>
