<svg width="20.000000" height="20.000000" viewBox="0 0 20 20" fill="none" xmlns="http://www.w3.org/2000/svg" xmlns:xlink="http://www.w3.org/1999/xlink">
	<desc>
			Created with Pixso.
	</desc>
	<defs>
		<clipPath id="clip117_1883">
			<rect id="message-2 2" rx="0.000000" width="19.000000" height="19.000000" transform="translate(0.500000 0.500000)" fill="white" fill-opacity="0"/>
		</clipPath>
	</defs>
	<rect id="message-2 2" rx="0.000000" width="19.000000" height="19.000000" transform="translate(0.500000 0.500000)" fill="#FFFFFF" fill-opacity="0"/>
	<g clip-path="url(#clip117_1883)">
		<path id="Vector" d="M6.66 7.5L13.33 7.5" stroke="#333333" stroke-opacity="1.000000" stroke-width="1.500000" stroke-linejoin="round" stroke-linecap="round"/>
		<path id="Vector" d="M6.66 10.83L11.66 10.83" stroke="#333333" stroke-opacity="1.000000" stroke-width="1.500000" stroke-linejoin="round" stroke-linecap="round"/>
		<path id="Vector" d="M5 15C4.33 15 3.7 14.73 3.23 14.26C2.76 13.79 2.5 13.16 2.5 12.5L2.5 5.83C2.5 5.17 2.76 4.53 3.23 4.06C3.7 3.59 4.33 3.33 5 3.33L15 3.33C15.66 3.33 16.29 3.59 16.76 4.06C17.23 4.53 17.5 5.17 17.5 5.83L17.5 12.5C17.5 13.16 17.23 13.79 16.76 14.26C16.29 14.73 15.66 15 15 15L12.5 15L10 17.5L7.5 15L5 15Z" stroke="#333333" stroke-opacity="1.000000" stroke-width="1.500000" stroke-linejoin="round"/>
	</g>
</svg>
