<svg width="20.000000" height="20.000000" viewBox="0 0 20 20" fill="none" xmlns="http://www.w3.org/2000/svg" xmlns:xlink="http://www.w3.org/1999/xlink">
	<desc>
			Created with Pixso.
	</desc>
	<defs>
		<clipPath id="clip137_13410">
			<rect id="microphone 2" rx="0.000000" width="19.000000" height="19.000000" transform="translate(0.500000 0.500000)" fill="white" fill-opacity="0"/>
		</clipPath>
	</defs>
	<rect id="microphone 2" rx="0.000000" width="19.000000" height="19.000000" transform="translate(0.500000 0.500000)" fill="#FFFFFF" fill-opacity="0"/>
	<g clip-path="url(#clip137_13410)">
		<path id="Vector" d="M8.23 2.39C8.7 1.93 9.33 1.66 10 1.66C10.66 1.66 11.29 1.93 11.76 2.39C12.23 2.86 12.5 3.5 12.5 4.16L12.5 8.33C12.5 8.99 12.23 9.63 11.76 10.1C11.29 10.57 10.66 10.83 10 10.83C9.33 10.83 8.7 10.57 8.23 10.1C7.76 9.63 7.5 8.99 7.5 8.33L7.5 4.16C7.5 3.5 7.76 2.86 8.23 2.39Z" stroke="#333333" stroke-opacity="1.000000" stroke-width="1.500000" stroke-linejoin="round"/>
		<path id="Vector" d="M4.16 8.33C4.16 9.88 4.78 11.36 5.87 12.45C6.96 13.55 8.45 14.16 10 14.16C11.54 14.16 13.03 13.55 14.12 12.45C15.21 11.36 15.83 9.88 15.83 8.33" stroke="#333333" stroke-opacity="1.000000" stroke-width="1.500000" stroke-linejoin="round" stroke-linecap="round"/>
		<path id="Vector" d="M6.66 17.5L13.33 17.5" stroke="#333333" stroke-opacity="1.000000" stroke-width="1.500000" stroke-linejoin="round" stroke-linecap="round"/>
		<path id="Vector" d="M10 14.16L10 17.5" stroke="#333333" stroke-opacity="1.000000" stroke-width="1.500000" stroke-linejoin="round" stroke-linecap="round"/>
	</g>
</svg>
