<svg width="14" height="16" viewBox="0 0 14 16" fill="none" xmlns="http://www.w3.org/2000/svg">
<path fill-rule="evenodd" clip-rule="evenodd" d="M6.99979 0.5C6.00523 0.5 5.05141 0.895088 4.34814 1.59835C3.64488 2.30161 3.24979 3.25544 3.24979 4.25C3.24979 5.24456 3.64488 6.19839 4.34814 6.90165C5.05141 7.60491 6.00523 8 6.99979 8C7.99436 8 8.94818 7.60491 9.65145 6.90165C10.3547 6.19839 10.7498 5.24456 10.7498 4.25C10.7498 3.25544 10.3547 2.30161 9.65145 1.59835C8.94818 0.895088 7.99436 0.5 6.99979 0.5ZM4.7498 8.75C3.50255 8.75 2.3033 9.3185 1.60054 10.175C1.24429 10.61 0.993045 11.1478 0.971295 11.744C0.948795 12.353 1.16854 12.947 1.62229 13.4653C2.72629 14.729 4.48954 15.5 6.99979 15.5C9.51005 15.5 11.2733 14.729 12.3773 13.4653C12.831 12.947 13.0508 12.353 13.0283 11.744C13.0058 11.1478 12.756 10.61 12.3983 10.175C11.697 9.32 10.4978 8.75 9.24979 8.75H4.7498Z" fill="#232325"/>
</svg>
