<svg width="18" height="18" viewBox="0 0 18 18" fill="none" xmlns="http://www.w3.org/2000/svg">
<path fill-rule="evenodd" clip-rule="evenodd" d="M8.99979 1.5C8.00523 1.5 7.05141 1.89509 6.34814 2.59835C5.64488 3.30161 5.24979 4.25544 5.24979 5.25C5.24979 6.24456 5.64488 7.19839 6.34814 7.90165C7.05141 8.60491 8.00523 9 8.99979 9C9.99436 9 10.9482 8.60491 11.6514 7.90165C12.3547 7.19839 12.7498 6.24456 12.7498 5.25C12.7498 4.25544 12.3547 3.30161 11.6514 2.59835C10.9482 1.89509 9.99436 1.5 8.99979 1.5ZM6.7498 9.75C5.50255 9.75 4.3033 10.3185 3.60054 11.175C3.24429 11.61 2.99304 12.1478 2.97129 12.744C2.94879 13.353 3.16854 13.947 3.62229 14.4653C4.72629 15.729 6.48954 16.5 8.99979 16.5C11.51 16.5 13.2733 15.729 14.3773 14.4653C14.831 13.947 15.0508 13.353 15.0283 12.744C15.0058 12.1478 14.756 11.61 14.3983 11.175C13.697 10.32 12.4978 9.75 11.2498 9.75H6.7498Z" fill="#232325"/>
</svg>
