<svg width="20.000000" height="20.000000" viewBox="0 0 20 20" fill="none" xmlns="http://www.w3.org/2000/svg" xmlns:xlink="http://www.w3.org/1999/xlink">
	<desc>
			Created with Pixso.
	</desc>
	<defs>
		<clipPath id="clip117_1857">
			<rect id="sparkles 1" rx="0.000000" width="19.000000" height="19.000000" transform="translate(0.500000 0.500000)" fill="white" fill-opacity="0"/>
		</clipPath>
	</defs>
	<rect id="sparkles 1" rx="0.000000" width="19.000000" height="19.000000" transform="translate(0.500000 0.500000)" fill="#FFFFFF" fill-opacity="0"/>
	<g clip-path="url(#clip117_1857)">
		<path id="Vector" d="M14.51 15.48C14.82 15.8 15 16.22 15 16.66C15 16.22 15.17 15.8 15.48 15.48C15.8 15.17 16.22 15 16.66 15C16.22 15 15.8 14.82 15.48 14.51C15.17 14.19 15 13.77 15 13.33C15 13.77 14.82 14.19 14.51 14.51C14.19 14.82 13.77 15 13.33 15C13.77 15 14.19 15.17 14.51 15.48ZM14.51 5.48C14.82 5.8 15 6.22 15 6.66C15 6.22 15.17 5.8 15.48 5.48C15.8 5.17 16.22 5 16.66 5C16.22 5 15.8 4.82 15.48 4.51C15.17 4.19 15 3.77 15 3.33C15 3.77 14.82 4.19 14.51 4.51C14.19 4.82 13.77 5 13.33 5C13.77 5 14.19 5.17 14.51 5.48ZM8.96 11.46C9.9 10.52 11.17 10 12.5 10C11.17 10 9.9 9.47 8.96 8.53C8.02 7.59 7.5 6.32 7.5 5C7.5 6.32 6.97 7.59 6.03 8.53C5.09 9.47 3.82 10 2.5 10C3.82 10 5.09 10.52 6.03 11.46C6.97 12.4 7.5 13.67 7.5 15C7.5 13.67 8.02 12.4 8.96 11.46Z" stroke="#333333" stroke-opacity="1.000000" stroke-width="1.500000" stroke-linejoin="round"/>
	</g>
</svg>
