<svg width="30.000000" height="30.000000" viewBox="0 0 30 30" fill="none" xmlns="http://www.w3.org/2000/svg" xmlns:xlink="http://www.w3.org/1999/xlink">
	<desc>
			Created with Pixso.
	</desc>
	<defs/>
	<rect id="icon/telegram" rx="0.000000" width="29.000000" height="29.000000" transform="translate(0.500000 0.500000)" fill="#FFFFFF" fill-opacity="0"/>
	<path id="Vector" d="M15 0C6.71 0 0 6.71 0 15C0 23.28 6.71 30 15 30C23.28 30 30 23.28 30 15C30 6.71 23.28 0 15 0ZM21.95 10.2C21.72 12.57 20.75 18.32 20.25 20.98C20.04 22.1 19.62 22.48 19.22 22.52C18.35 22.6 17.69 21.94 16.85 21.39C15.53 20.52 14.78 19.99 13.5 19.14C12.02 18.16 12.98 17.63 13.82 16.75C14.04 16.52 17.88 13.03 17.96 12.72C17.96 12.68 17.97 12.53 17.89 12.45C17.8 12.37 17.67 12.4 17.58 12.42C17.44 12.45 15.33 13.84 11.25 16.6C10.65 17.01 10.11 17.21 9.62 17.2C9.09 17.19 8.06 16.9 7.29 16.65C6.35 16.35 5.6 16.18 5.67 15.67C5.7 15.4 6.08 15.12 6.79 14.84C11.16 12.93 14.07 11.68 15.53 11.07C19.7 9.34 20.56 9.04 21.13 9.02C21.83 9.01 22.01 9.6 21.95 10.2Z" fill="#FFFFFF" fill-opacity="1.000000" fill-rule="evenodd"/>
</svg>
