<svg width="18.000000" height="18.000000" viewBox="0 0 18 18" fill="none" xmlns="http://www.w3.org/2000/svg" xmlns:xlink="http://www.w3.org/1999/xlink">
	<desc>
			Created with Pixso.
	</desc>
	<defs>
		<clipPath id="clip2113_6369">
			<rect id="Livello_1" rx="0.000000" width="17.000000" height="17.000000" transform="translate(0.500000 0.500000)" fill="white" fill-opacity="0"/>
		</clipPath>
		<linearGradient x1="9.000000" y1="18.000000" x2="9.000000" y2="0.000000" id="paint_linear_2113_6370_0" gradientUnits="userSpaceOnUse">
			<stop stop-color="#1D93D2"/>
			<stop offset="1.000000" stop-color="#38B0E3"/>
		</linearGradient>
	</defs>
	<rect id="Livello_1" rx="0.000000" width="17.000000" height="17.000000" transform="translate(0.500000 0.500000)" fill="#FFFFFF" fill-opacity="0"/>
	<g clip-path="url(#clip2113_6369)">
		<path id="Vector" d="M18 9C18 13.97 13.96 18 9 18C4.03 18 0 13.97 0 9C0 4.02 4.03 0 9 0C13.96 0 18 4.02 18 9Z" fill="url(#paint_linear_2113_6370_0)" fill-opacity="1.000000" fill-rule="evenodd"/>
		<path id="Vector" d="M6.09 9.65L7.16 12.61C7.16 12.61 7.29 12.88 7.43 12.88C7.58 12.88 9.7 10.67 9.7 10.67L12.07 6.11L6.13 8.89L6.09 9.65Z" fill="#C8DAEA" fill-opacity="1.000000" fill-rule="nonzero"/>
		<path id="Vector" d="M7.5 10.41L7.3 12.59C7.3 12.59 7.21 13.26 7.88 12.59C8.55 11.92 9.19 11.41 9.19 11.41L7.5 10.41Z" fill="#A9C6D8" fill-opacity="1.000000" fill-rule="nonzero"/>
		<path id="Vector" d="M6.1 9.76L3.91 9.04C3.91 9.04 3.65 8.94 3.73 8.69C3.75 8.64 3.78 8.6 3.89 8.53C4.37 8.19 12.9 5.13 12.9 5.13C12.9 5.13 13.14 5.05 13.28 5.1C13.32 5.11 13.35 5.13 13.37 5.16C13.39 5.19 13.41 5.22 13.42 5.25C13.44 5.32 13.44 5.38 13.44 5.45C13.44 5.5 13.43 5.56 13.42 5.64C13.37 6.48 11.82 12.73 11.82 12.73C11.82 12.73 11.73 13.09 11.39 13.1C11.32 13.11 11.23 13.09 11.16 13.06C11.08 13.03 11.01 12.99 10.95 12.93C10.3 12.37 8.04 10.85 7.54 10.52C7.53 10.51 7.52 10.5 7.51 10.49C7.51 10.48 7.5 10.47 7.5 10.45C7.49 10.42 7.53 10.37 7.53 10.37C7.53 10.37 11.46 6.88 11.57 6.51C11.58 6.48 11.55 6.47 11.5 6.48C11.24 6.58 6.71 9.44 6.22 9.75C6.18 9.76 6.14 9.76 6.1 9.76Z" fill="#FFFFFF" fill-opacity="1.000000" fill-rule="nonzero"/>
	</g>
</svg>
