<svg width="30.000000" height="30.000000" viewBox="0 0 30 30" fill="none" xmlns="http://www.w3.org/2000/svg" xmlns:xlink="http://www.w3.org/1999/xlink">
	<desc>
			Created with Pixso.
	</desc>
	<defs>
		<clipPath id="clip1280_1177">
			<rect id="icon/youtube" rx="0.000000" width="29.000000" height="29.000000" transform="translate(0.500000 0.500000)" fill="white" fill-opacity="0"/>
		</clipPath>
	</defs>
	<rect id="icon/youtube" rx="0.000000" width="29.000000" height="29.000000" transform="translate(0.500000 0.500000)" fill="#FFFFFF" fill-opacity="0"/>
	<g clip-path="url(#clip1280_1177)">
		<path id="Vector" d="M12.91 17.41L17.08 15L12.91 12.58L12.91 17.41Z" fill="#FFFFFF" fill-opacity="1.000000" fill-rule="nonzero"/>
		<path id="Vector" d="M15 0C12.03 0 9.13 0.87 6.66 2.52C4.2 4.17 2.27 6.51 1.14 9.25C0 12 -0.3 15.01 0.28 17.92C0.86 20.83 2.29 23.5 4.39 25.6C6.49 27.7 9.16 29.13 12.07 29.71C14.98 30.29 17.99 29.99 20.74 28.85C23.48 27.72 25.82 25.8 27.47 23.33C29.12 20.86 30 17.96 30 15C30 11.02 28.41 7.2 25.6 4.39C22.79 1.58 18.97 0 15 0ZM22.89 17.65C22.89 18.04 22.81 18.43 22.66 18.79C22.51 19.16 22.29 19.48 22.02 19.76C21.74 20.04 21.41 20.26 21.05 20.41C20.68 20.56 20.3 20.64 19.9 20.64L10.09 20.64C9.69 20.64 9.31 20.56 8.94 20.41C8.58 20.26 8.25 20.04 7.97 19.76C7.7 19.48 7.48 19.16 7.33 18.79C7.18 18.43 7.1 18.04 7.1 17.65L7.1 12.34C7.1 11.95 7.18 11.56 7.33 11.2C7.48 10.83 7.7 10.51 7.97 10.23C8.25 9.95 8.58 9.73 8.94 9.58C9.31 9.43 9.69 9.35 10.09 9.35L19.9 9.35C20.3 9.35 20.68 9.43 21.05 9.58C21.41 9.73 21.74 9.95 22.02 10.23C22.29 10.51 22.51 10.83 22.66 11.2C22.81 11.56 22.89 11.95 22.89 12.34L22.89 17.65Z" fill="#FFFFFF" fill-opacity="1.000000" fill-rule="nonzero"/>
	</g>
</svg>
